<?xml version="1.0" standalone="no"?>
<!DOCTYPE svg PUBLIC "-//W3C//DTD SVG 1.1//EN" "http://www.w3.org/Graphics/SVG/1.1/DTD/svg11.dtd">
<svg xmlns="http://www.w3.org/2000/svg">
<metadata>Copyright (C) 2019 by original authors @ fontello.com</metadata>
<defs>
<font id="smart" horiz-adv-x="1000" >
<font-face font-family="smart" font-weight="400" font-stretch="normal" units-per-em="1000" ascent="850" descent="-150" />
<missing-glyph horiz-adv-x="1000" />
<glyph glyph-name="add" unicode="&#xe800;" d="M556 406l140 0c31 0 56-25 56-56 0-31-25-56-56-56l-140 0 0-140c0-31-25-56-56-56-31 0-56 25-56 56l0 140-140 0c-31 0-56 25-56 56 0 31 25 56 56 56l140 0 0 140c0 31 25 56 56 56 31 0 56-25 56-56l0-140 0 0z" horiz-adv-x="1000" />

<glyph glyph-name="box" unicode="&#xe801;" d="M360 512l-188 0 0-474c0-10 8-18 18-18l620 0c10 0 18 8 18 18l0 474-188 0 0-138c0-21-22-36-42-28l-99 40-96-39c-21-9-43 6-43 27l0 138z m61 0l0-94 66 27c7 3 16 3 23 0l69-27 0 94-158 0z m148 59l-31 109-76 0-31-109 138 0z m-201 0l31 109-120 0-79-109 168 0z m264 0l168 0-79 109-120 0 31-109z m250-10c4-5 7-12 7-19l0-504c0-43-35-77-79-77l-620 0c-43 0-79 34-79 77l0 504c0 7 3 14 7 19 1 0 1 1 2 2l117 162c7 9 17 14 28 14l470 0c11 0 22-5 28-14l117-162c1-1 1-2 2-2l0 0z" horiz-adv-x="1000" />

<glyph glyph-name="chevron" unicode="&#xe802;" d="M292 602c-19 19-19 49 0 67 18 19 48 19 67 0l309-308c18-19 18-49 0-68l-309-309c-19-18-49-18-67 0-19 19-19 49 0 68l275 275-275 275z" horiz-adv-x="1000" />

<glyph glyph-name="close" unicode="&#xe803;" d="M486 443l225 224c21 22 57 22 78 0 22-22 22-57 0-78l-224-225 224-225c22-21 22-57 0-78-21-22-57-22-78 0l-225 224-224-224c-22-22-57-22-79 0-22 21-22 57 0 78l225 225-225 225c-22 21-22 56 0 78 22 22 57 22 79 0l224-224z" horiz-adv-x="1000" />

<glyph glyph-name="cog" unicode="&#xe804;" d="M798 460c27-8 39-13 55-20 21-11 36-34 36-59l0-63c0-26-14-49-39-60-25-10-36-15-53-19-3-7-6-14-9-20 9-15 16-29 25-54 8-23 2-49-15-67l-44-44c-18-18-44-24-67-16-18 5-35 13-55 25-9-4-15-7-21-9-5-21-11-40-20-57-11-21-34-36-59-36l-62 0c-26 0-50 14-60 36-10 20-16 38-21 56-7 3-14 6-20 9l-1 0c-19-11-36-20-53-25-23-8-49-2-67 16l-44 44c-18 17-24 43-16 68 6 18 14 36 25 53-4 8-7 14-9 20l-2 1c-27 8-39 12-54 20-22 11-37 34-37 59l0 63c0 25 14 49 37 59 18 9 37 16 56 21 3 7 6 14 9 20-9 15-16 30-25 54-8 23-2 49 16 67l44 44c18 18 44 24 67 16 19-6 38-15 53-25 9 4 15 7 22 9l0 2c8 27 13 39 20 55 11 21 34 36 60 36l62 0c26 0 49-14 59-36 9-19 17-38 21-57 7-3 14-6 21-9 17 11 35 20 53 25 24 8 50 2 68-16l44-44c17-18 23-44 16-67-6-18-15-36-26-53 4-9 7-15 10-22l0 0z m-412-388l1-6c-1 2-1 4-1 6z m392 164l6 1c-2-1-4-1-6-1z m-8 163c-3 0-5 1-8 3-9 4-17 12-21 21l-2 6c-3 9-6 16-15 35l0-1c-6 11-6 24-2 36 1 2 2 4 4 7l6 10c8 13 15 26 19 40 0 0 0 0 0 0l-44 44c0-1 0-1-1-1-13-4-26-10-39-18l-13-8c-11-6-24-6-35-2l-5 2c-10 5-21 10-36 15-15 5-26 17-28 34l-2 9c-3 13-9 28-16 43 0-1 0-1 0-1l-62 0c-6-11-10-21-16-42l-3-11-1-4c-4-12-12-21-23-26l-6-3c-9-2-16-6-39-16l5 2c-11-6-24-6-35-2-3 1-5 2-8 3l-10 7c-12 7-26 14-40 18l-43-43c7-19 12-30 18-40l8-13c6-11 6-24 2-36l-2-4c-5-11-9-22-15-36-5-15-17-27-34-29l-9-2c-13-3-27-8-43-15 1 0 1 0 1 0l0-63c0 0 0 0 0 0 11-5 21-9 42-15l11-3 4-1c12-4 21-12 27-23l2-6c2-9 6-17 16-37l-2 3c6-11 6-24 2-36-1-3-2-6-4-9l-6-7c-7-12-14-26-18-39-1-1-1-2-1-2l44-44c0 0 0 0 0 0 13 4 26 11 40 19l13 8c12 6 24 6 36 2l4-2c11-5 22-10 36-15 15-5 27-17 29-34l2-9c3-13 7-25 16-42-1 1-1 1 0 1l62 0c0 0 0 0 0 0 6 12 10 25 14 42l3 11 1 4c4 12 12 21 23 27l6 2c9 2 16 6 41 17l-7-3c11 6 24 6 36 2 2-1 4-2 7-3l9-6c16-9 29-15 42-19 0 0 0 0 0 0l44 43c-7 19-13 30-19 40l-8 13c-6 12-6 24-2 36l2 4c5 11 10 22 15 36 5 15 17 27 34 29l9 2c12 2 21 6 41 14 0 0 0 0 0 0l0 63c-11 5-20 9-43 16l-10 2z m-269-227c-98 0-177 80-177 177 0 98 79 177 177 177 97 0 177-79 177-177 0-97-80-177-177-177z m0 66c61 0 111 50 111 111 0 62-50 111-111 111-62 0-111-49-111-111 0-61 49-111 111-111z" horiz-adv-x="1000" />

<glyph glyph-name="connected" unicode="&#xe805;" d="M374 406l252 0c19 33 55 55 96 55 62 0 111-50 111-111 0-61-49-111-111-111-41 0-77 22-96 55l-252 0c-19-33-55-55-96-55-62 0-111 50-111 111 0 61 49 111 111 111 41 0 77-22 96-55z" horiz-adv-x="1000" />

<glyph glyph-name="disconnected" unicode="&#xe806;" d="M489 406l116 163c13 18 39 23 58 9 19-13 23-39 10-58l-82-114 35 0c19 33 55 55 96 55 62 0 111-50 111-111 0-61-49-111-111-111-41 0-77 22-96 55l-114 0-117-163c-13-18-39-23-58-9-19 13-23 39-10 58l82 114-35 0c-19-33-55-55-96-55-62 0-111 50-111 111 0 61 49 111 111 111 41 0 77-22 96-55l115 0z" horiz-adv-x="1000" />

<glyph glyph-name="down" unicode="&#xe807;" d="M729 548c28 30 75 32 105 5 30-28 32-75 5-105l-272-296c-29-32-80-32-109 0l-272 296c-27 30-25 77 5 105 30 27 77 25 104-5l217-236 217 236z" horiz-adv-x="1000" />

<glyph glyph-name="edit" unicode="&#xe808;" d="M748 17l0 59-470 0 0-59 470 0 0 0z m-336 140l-134 0 0 134 336 337 134-134-336-337 0 0z" horiz-adv-x="1000" />

<glyph glyph-name="failed" unicode="&#xe809;" d="M579 350l99-100c22-21 22-56 0-78-21-22-57-22-78 0l-100 99-100-99c-21-22-56-22-78 0-22 22-22 57 0 78l99 100-99 100c-22 21-22 57 0 78 22 22 57 22 78 0l100-99 100 99c21 22 57 22 78 0 22-21 22-57 0-78l-99-100z" horiz-adv-x="1000" />

<glyph glyph-name="fulfilled" unicode="&#xe80a;" d="M436 281l233 233c22 22 57 22 79 0 21-21 21-57 0-78l-272-272c-22-22-57-22-79 0l-131 130c-21 22-21 57 0 79 22 22 57 22 79 0l91-92z" horiz-adv-x="1000" />

<glyph glyph-name="grid" unicode="&#xe80b;" d="M222 572l185 0c31 0 56-25 56-55l0-74c0-31-25-56-56-56l-185 0c-30 0-55 25-55 56l0 74c0 30 25 55 55 55z m371 0l185 0c31 0 55-25 55-55l0-74c0-31-24-56-55-56l-185 0c-31 0-56 25-56 56l0 74c0 30 25 55 56 55z m-371-259l185 0c31 0 56-25 56-56l0-74c0-30-25-55-56-55l-185 0c-30 0-55 25-55 55l0 74c0 31 25 56 55 56z m371 0l185 0c31 0 55-25 55-56l0-74c0-30-24-55-55-55l-185 0c-31 0-56 25-56 55l0 74c0 31 25 56 56 56z" horiz-adv-x="1000" />

<glyph glyph-name="list" unicode="&#xe80c;" d="M204 572l592 0c21 0 37-16 37-37 0-20-16-37-37-37l-592 0c-21 0-37 17-37 37 0 21 16 37 37 37z m0-185l592 0c21 0 37-16 37-37 0-20-16-37-37-37l-592 0c-21 0-37 17-37 37 0 21 16 37 37 37z m0-185l592 0c21 0 37-17 37-37 0-21-16-37-37-37l-592 0c-21 0-37 16-37 37 0 20 16 37 37 37z" horiz-adv-x="1000" />

<glyph glyph-name="more" unicode="&#xe80d;" d="M208 267c-53 0-97 43-97 97 0 54 44 97 97 97 54 0 98-43 98-97 0-54-44-97-98-97z m292 0c-54 0-97 43-97 97 0 54 43 97 97 97 54 0 97-43 97-97 0-54-43-97-97-97z m292 0c-54 0-98 43-98 97 0 54 44 97 98 97 53 0 97-43 97-97 0-54-44-97-97-97z" horiz-adv-x="1000" />

<glyph glyph-name="padlock" unicode="&#xe80e;" d="M297 378l-3 0c-5 0-8-3-8-8l0-216c0-44 36-79 81-79l266 0c45 0 81 35 81 79l0 216c0 4-3 8-7 8l-410 0z m375 63l0 68c0 92-77 168-172 168-94 0-171-76-171-168l0-68 343 0z m-407 68c0 127 106 230 235 230 130 0 235-103 235-230l0-75c25-11 42-35 43-64l0-216c-1-78-65-141-145-142l-266 0c-80 1-144 64-145 142l0 216c0 29 18 54 43 65l0 74z m235-376c-52 0-95 42-95 93 0 52 43 94 95 94 53 0 95-42 95-94 0-51-42-93-95-93z m32 93c0 18-14 31-32 31-17 0-31-13-31-30 0-18 14-31 31-31 18 0 32 13 32 30z" horiz-adv-x="1000" />

<glyph glyph-name="pending" unicode="&#xe80f;" d="M435 344c-4 4-8 8-11 12l-106 128c-14 17-22 37-22 58 0 52 44 94 97 94l214 0c22 0 43-7 60-20 42-33 49-92 16-132l-107-128c-3-4-7-8-11-12 4-3 8-7 11-11l107-128c33-40 26-99-16-132-17-13-38-20-60-20l-214 0c-53 0-97 42-97 93 0 22 8 42 22 59l106 128c3 4 7 8 11 11l0 0z m74-59c-6 5-15 4-20-2l-106-128c-2-3-3-6-3-9 0-7 6-13 13-13l214 0c3 0 6 1 8 3 6 5 7 13 3 19l-107 128c-1 1-1 2-2 2z m0 119c1 0 1 1 2 2l107 128c4 6 3 14-3 19-2 2-5 3-8 3l-214 0c-7 0-13-6-13-14 0-3 1-6 3-8l106-128c5-6 14-7 20-2z" horiz-adv-x="1000" />

<glyph glyph-name="refresh" unicode="&#xe810;" d="M222 134l0 123c0 18 14 32 32 32l123 0c17 0 31-14 31-32 0-17-14-31-31-31l-56 0c41-57 109-92 180-92 109 0 200 81 214 188 0 0 0 1 0 1 3 18 18 29 35 27 17-3 29-18 26-35-18-139-136-243-276-243-83 0-162 37-215 101l0-39c0-17-14-31-31-31-18 0-32 14-32 31z m371 309c0 16 14 30 31 31l57 0c-41 58-109 93-181 93-108 0-200-82-214-189-2-17-17-28-33-27-18 2-30 17-28 34 17 138 136 243 275 243 84 0 163-37 216-101l0 39c0 17 14 31 31 31 18 0 32-14 32-31l0-123c0-18-14-32-32-32l-123 0c-17 0-31 14-31 32z" horiz-adv-x="1000" />

<glyph glyph-name="remove" unicode="&#xe811;" d="M697 406c29 0 53-25 53-56 0-31-24-56-53-56l-394 0c-29 0-53 25-53 56 0 31 24 56 53 56l394 0z" horiz-adv-x="1000" />

<glyph glyph-name="robot" unicode="&#xe812;" d="M717 283c-28-42-68-76-115-96 4-6 6-13 6-21l0-36 15 0c11 0 21-7 24-17l17-60c2-8 0-16-4-22-5-6-12-9-19-9l-117 0c-7 0-12 5-12 12l0 132c0 0 0 0 0 0-4 0-8 0-12 0-4 0-8 0-12 0 0 0 0 0 0 0l0-132c0-7-5-12-12-12l-116 0c-8 0-15 3-20 9-4 6-6 14-4 22l18 60c3 10 12 17 23 17l15 0 0 36c0 8 2 15 6 21-47 20-86 54-114 96-6-8-10-17-12-26 13-15 15-36 6-53-6-12-17-21-31-24l0-26c0-13-11-24-24-24l-36 0c-7 0-12 6-12 12 0 7 5 12 12 12l36 0 0 26c-2 1-4 1-5 2-15 5-26 18-29 33l-26 0 0-37c0-6-5-12-12-12-7 0-12 6-12 12l0 37c0 13 11 24 24 24l26 0c1 7 5 14 10 20 4 37 23 72 52 95-6 22-10 46-10 71 0 143 116 258 259 258 143 0 259-115 259-258 0-25-4-49-10-71 29-23 48-57 52-95 5-6 9-13 10-20l26 0c13 0 24-11 24-24l0-37c0-6-5-12-12-12-7 0-12 6-12 12l0 37-26 0c-3-15-14-28-29-33l-5-2 0-26 36 0c7 0 12-5 12-12 0-6-5-12-12-12l-36 0c-13 0-24 11-24 24l0 26c-16 4-29 16-34 32-5 16-2 33 9 45-2 10-6 19-11 26z m-143 306c-8 4-15 6-23 9 0 0 0 0-1 0-28-34-102-122-107-129 3-2 7-3 12-3 5 0 11 1 18 1 5 6 74 89 101 121 0 0 0 1 0 1 0 0 0 0 0 0z m-147-326c8-3 15-6 23-8 0-1 0 0 1 0 28 33 102 121 107 128-3 2-7 3-12 3-5 0-11 0-18 0-5-7-74-90-101-122 0 0 0 0 0-1 0 0 0 0 0 0z m-113 163c0-45 17-88 47-122 8-8 20-17 32-17 13 0 21 6 30 14 14 16 50 59 71 85-16 0-31 0-41 0-28 1-51 22-51 50 0 3 1 6 1 9 0 1 1 1 1 1 0 0 1 0 1-1 4-17 22-30 43-29 26 0 73 0 100 0 19-1 34-16 34-35 0-10-5-17-11-24l0-1c-24-27-71-85-71-85-7-6-8-15-4-22 3-5 10-7 16-7 98 8 175 86 175 184 0 45-17 88-47 122-8 9-20 17-32 17-13 0-21-5-30-14-14-16-50-59-71-84 16 0 31 0 41-1 28 0 51-22 51-49 0-4-1-7-1-10 0-1-1-1-1-1 0 0-1 0-1 1-4 17-22 30-43 30-26-1-73-1-100 0-19 0-34 15-34 34 0 10 5 17 11 24l0 1c24 28 71 85 71 85 6 7 8 15 4 22-3 5-10 7-16 7-98-8-175-86-175-184z" horiz-adv-x="1000" />

<glyph glyph-name="search" unicode="&#xe813;" d="M698 202l120-120c21-21 21-55 0-76-22-22-56-22-77 0l-125 124c-44-26-96-41-152-41-164 0-297 133-297 297 0 164 133 297 297 297 164 0 298-133 298-297 0-70-24-134-64-184z m-234-5c105 0 189 84 189 189 0 104-84 189-189 189-104 0-189-85-189-189 0-105 85-189 189-189z" horiz-adv-x="1000" />

<glyph glyph-name="show" unicode="&#xe814;" d="M500 151c146 0 275 80 330 203 2 4 2 9 0 13-55 124-184 204-330 204-146 0-275-80-330-204-2-4-2-9 0-13 55-123 184-203 330-203z m0-58c-168 0-318 93-383 238-8 19-8 40 0 59 65 145 215 238 383 238 168 0 318-93 383-238 8-19 8-40 0-59-65-145-215-238-383-238z m0 147c74 0 134 55 134 121 0 65-60 120-134 120-74 0-134-55-134-120 0-66 60-121 134-121z m0-57c-105 0-191 79-191 178 0 98 86 177 191 177 105 0 191-79 191-177 0-99-86-178-191-178z" horiz-adv-x="1000" />

<glyph glyph-name="star" unicode="&#xe815;" d="M500 150l-206-100 34 228-161 161 227 39 106 205 106-205 227-39-161-167 34-228-206 106z" horiz-adv-x="1000" />

<glyph glyph-name="tick" unicode="&#xe816;" d="M752 612c22 21 57 21 79 0 22-22 22-57 0-79l-458-458c-22-22-57-22-79 0l-167 166c-21 22-21 57 0 79 22 22 57 22 79 0l127-127 419 419z" horiz-adv-x="1000" />

<glyph glyph-name="trash" unicode="&#xe817;" d="M561 739c19 0 37-8 50-21 14-14 22-32 22-51l0-44 173 0c15 0 27-12 27-27 0-15-12-27-27-27l-47 0-27-471c-3-62-54-110-116-110l-232 0c-62 0-113 48-116 110l-26 471-48 0c-15 0-27 12-27 27 0 15 12 27 27 27l173 0 0 44c0 40 32 72 72 72l122 0z m-140-72l0-44 158 0 0 44c0 10-8 18-18 18l-122 0c-10 0-18-8-18-18z m283-98l-409 0 26-468c2-33 30-59 63-59l232 0c33 0 61 26 62 59l26 468z m-276-116c15 0 27-12 27-27l0-242c0-15-12-27-27-27-15 0-27 12-27 27l0 242c0 15 12 27 27 27z m144 0c15 0 27-12 27-27l0-242c0-15-12-27-27-27-15 0-27 12-27 27l0 242c0 15 12 27 27 27z" horiz-adv-x="1000" />
</font>
</defs>
</svg>
